<svg width="72" height="63" viewBox="0 0 72 63" fill="none" xmlns="http://www.w3.org/2000/svg">
<g clip-path="url(#clip0)">
<path fill-rule="evenodd" clip-rule="evenodd" d="M40.21 56.6159C40.21 57.112 40.1221 57.6512 39.9902 58.1688C39.6604 59.657 38.9349 61.6628 36.9343 61.6844C35.923 61.6844 35.0436 61.0589 35.0436 59.5923C35.0436 58.9021 35.4174 54.4807 38.3193 54.4807C39.0009 54.4807 40.21 54.7826 40.21 56.6159ZM36.9123 63C40.3859 63 41.5071 60.304 41.9248 58.7296C42.1007 58.1041 42.2106 57.4355 42.2106 56.7669C42.2106 54.4375 40.7597 53.1003 38.3413 53.1003C37.6818 53.1003 37.1102 53.2082 36.5825 53.3591C36.6196 53.2986 36.6635 53.2177 36.7144 53.124L36.7145 53.1239C36.7542 53.0507 36.7982 52.9697 36.8464 52.8846C36.9783 52.6905 37.1322 52.4964 37.33 52.3023C37.7258 51.9141 38.3193 51.5906 39.1548 51.5906C39.8363 51.5906 41.0015 51.5043 41.727 51.3102L41.9908 49.671C41.2653 49.8436 40.188 49.9083 39.6604 49.9083C35.7032 49.9514 33.8784 53.8336 33.2189 57.9315L33.2077 57.9853C33.19 58.069 33.1749 58.1405 33.1749 58.2119C33.109 58.6002 33.087 58.9452 33.087 59.2688C33.087 61.7491 34.45 63 36.9123 63ZM62.3487 55.5159L62.6345 54.114L62.8543 53.2082L62.7664 53.0788L62.7663 53.0788L62.7662 53.0788C61.887 53.2513 61.6671 53.2944 60.8097 53.4023L60.6778 53.5317C60.458 55.0199 60.3481 55.6453 60.0842 56.81C59.6799 56.81 59.3617 56.8156 59.0503 56.8211C58.7522 56.8264 58.4605 56.8316 58.1056 56.8316C57.4241 56.8316 56.7426 56.8316 56.061 56.81L56.3688 55.4944L56.6546 54.0924L56.8525 53.1866L56.7645 53.0572L56.7645 53.0572L56.7643 53.0572C55.8851 53.2297 55.6652 53.2729 54.8079 53.3807L54.676 53.5101C54.3902 55.4728 54.3023 55.9473 53.7966 58.0825L53.4888 59.4413L52.7413 62.5471L52.8293 62.6765L54.698 62.6334L54.8299 62.5255C55.1816 60.7354 55.4015 59.657 55.6873 58.4276C56.171 58.406 56.6546 58.406 57.2922 58.406C58.0847 58.406 58.8564 58.4265 59.6479 58.4475L59.7105 58.4492L59.4907 59.4629L58.7432 62.5687L58.8311 62.6981L60.6998 62.6549L60.8317 62.5471C61.3053 60.1382 61.5549 59.0334 61.9826 57.141L61.9826 57.141L61.9826 57.141C62.091 56.6612 62.2109 56.1309 62.3487 55.5159ZM65.8222 57.0688C66.2619 56.7022 66.5258 56.4649 67.1193 55.8826C67.7569 55.2787 69.3398 53.6827 69.6256 53.3591L69.8235 53.2513H71.934L71.978 53.4239C71.8824 53.5059 71.8064 53.5688 71.6405 53.706L71.639 53.7072C71.4996 53.8225 71.2969 53.9901 70.9667 54.265C70.6809 54.5023 70.483 54.6748 70.1312 54.9983L67.7349 57.1767L70.5929 62.504L70.483 62.6549L68.4384 62.7196L68.2845 62.6118C67.8137 61.5201 67.6762 61.2458 67.061 60.0187L67.061 60.0187L67.0094 59.9158L65.7123 57.3492C65.6506 57.6251 65.5921 57.8853 65.5355 58.1367C65.2295 59.4971 64.9808 60.6027 64.5911 62.5687L64.4592 62.6765L62.5905 62.7196L62.5026 62.5902L63.25 59.4844L63.5358 58.1257C64.0415 55.9904 64.1294 55.5159 64.4152 53.5533L64.5471 53.4239C65.4045 53.316 65.6243 53.2729 66.5035 53.1004L66.5037 53.1003L66.5038 53.1003L66.5917 53.2297L66.3938 54.1356L66.108 55.5375L65.8222 57.0688ZM49.3059 60.5127C49.3744 60.4554 49.442 60.3987 49.5096 60.3472L50.8287 54.5022C50.6858 54.5022 50.5484 54.4969 50.411 54.4915C50.2736 54.4861 50.1362 54.4807 49.9933 54.4807C49.3997 54.4807 48.1905 54.5022 47.0913 55.2356C45.1566 56.5296 45.1126 58.8805 45.1126 58.9668C45.1126 59.8295 45.5963 61.2314 47.2891 61.2314C47.7948 61.2314 48.4104 61.102 48.894 60.8217C49.0387 60.7365 49.174 60.6232 49.3059 60.5127ZM52.9612 53.1435L53.0491 53.2944L52.2357 56.8316C51.5981 59.6138 51.4662 60.304 51.0925 62.4608L50.9606 62.5902L49.2238 62.6334L49.1359 62.504L49.2678 61.7706C48.96 62.0295 48.1465 62.6981 46.5636 62.6981C44.673 62.6981 43.134 61.3824 43.134 59.1178C43.134 57.6727 43.8375 56.1198 44.607 55.214C46.3218 53.2297 48.7181 53.1219 50.411 53.1219L52.9612 53.1435Z" fill="#76BC21"/>
<path fill-rule="evenodd" clip-rule="evenodd" d="M4.06714 62.9568C2.06653 62.9568 -0.835451 62.3314 0.219816 57.7805C0.615542 56.0767 1.8247 52.4532 6.74928 52.4532C11.5639 52.4532 10.8384 56.3139 10.5526 57.6943C9.67325 61.5334 7.27692 62.9568 4.06714 62.9568ZM4.72669 60.951C6.13371 60.951 6.79325 59.506 7.23295 57.6511C7.54073 56.3355 7.8705 54.4375 6.15569 54.4375C4.7047 54.4375 4.06714 55.7963 3.62745 57.6511C3.23172 59.3766 3.14379 60.951 4.72669 60.951ZM15.829 62.7412C14.9057 62.7412 13.3667 62.7412 12.7292 62.7627L12.6193 62.6549C12.7951 62.051 13.2348 60.4118 13.6965 58.4276L13.7652 58.1301C14.1102 56.6371 14.4082 55.3478 14.5319 54.761C14.1629 54.7714 13.6928 54.7767 13.2404 54.7819H13.2403H13.24C12.7491 54.7875 12.2791 54.7929 11.9817 54.8042L11.8718 54.6316C12.0257 54.1355 12.2455 53.2944 12.3774 52.7768L12.5533 52.6905C13.0809 52.7121 15.0376 52.7336 16.6205 52.7336C18.5331 52.7336 20.4018 52.6905 20.7976 52.6689L20.9295 52.7768C20.7976 53.2297 20.5338 54.1571 20.4018 54.6316L20.226 54.7394C19.4566 54.7179 18.8851 54.7179 17.7863 54.7179H17.7857C17.7442 54.9113 17.6537 55.2872 17.5166 55.8569L17.5165 55.8574C17.3631 56.495 17.1513 57.3751 16.8843 58.5138C16.5106 60.153 16.2028 61.6412 16.0269 62.5902L15.829 62.7412ZM25.4824 54.9687C25.8062 54.9625 26.1969 54.9551 26.5575 54.9551C26.8976 54.9551 27.2666 54.9622 27.5817 54.9683C27.8166 54.9728 28.0216 54.9767 28.1624 54.9767C28.1006 55.2393 27.9954 55.7149 27.8672 56.2948C27.7216 56.953 27.5463 57.7456 27.371 58.5138C26.9313 60.4118 26.5575 61.9431 26.3816 62.6118L26.4696 62.7412C27.261 62.7196 28.778 62.7196 29.6134 62.7196L29.7453 62.6118C29.8552 62.0726 30.2729 60.1314 30.7126 58.1688C31.2623 55.7316 31.8558 53.2944 31.9878 52.7768L31.8998 52.6689C31.6648 52.6738 31.381 52.681 31.0588 52.6891C29.9643 52.7166 28.4279 52.7552 26.8653 52.7552C25.2749 52.7552 24.2628 52.739 23.4797 52.7264C22.9854 52.7185 22.5824 52.7121 22.1826 52.7121L22.0287 52.8415C21.953 53.128 21.8134 53.7799 21.6335 54.62C21.4478 55.4876 21.2191 56.5558 20.9734 57.6296C20.4897 59.7216 19.9841 61.8569 19.7862 62.6333L19.8742 62.7412C20.8635 62.7196 22.0726 62.7196 23.018 62.7196L23.1939 62.6118C23.2344 62.4297 23.2888 62.1802 23.3545 61.8786C23.5379 61.0366 23.8097 59.7887 24.1172 58.4707C24.3335 57.4664 24.5781 56.4528 24.7457 55.7585C24.8337 55.3942 24.9004 55.1177 24.9307 54.9767C25.0581 54.9767 25.2535 54.973 25.4824 54.9687Z" fill="#006548"/>
<path d="M26.1838 21.611C26.1838 16.3053 30.5587 12.0133 35.967 12.0133C41.3532 12.0133 45.7502 16.3053 45.7502 21.611C45.7502 26.8952 41.3752 31.2088 35.967 31.2088C30.5807 31.2088 26.1838 26.9168 26.1838 21.611Z" fill="#76BC21"/>
<path fill-rule="evenodd" clip-rule="evenodd" d="M35.9011 0C23.7215 0.021568 13.8724 9.68401 13.8724 21.6111C13.8724 33.5597 23.7435 43.2438 35.9231 43.2222C48.0806 43.2222 57.9518 33.5382 57.9518 21.5464H49.9933C49.9933 29.2893 43.6397 35.4146 35.9231 35.4146C28.1625 35.4146 21.8528 29.2246 21.8528 21.6111C21.8528 13.9976 28.1405 7.82917 35.9011 7.8076V0ZM48.3444 3.9685C45.2446 3.9685 42.7383 6.42724 42.7383 9.46832C42.7383 12.5094 45.2666 14.9682 48.3444 14.9682C51.4443 14.9682 53.9506 12.5094 53.9506 9.46832C53.9506 6.42724 51.4443 3.9685 48.3444 3.9685Z" fill="#006548"/>
</g>
<defs>
<clipPath id="clip0">
<rect width="72" height="63" fill="white"/>
</clipPath>
</defs>
</svg>
