<svg width="212" height="40" viewBox="0 0 212 40" fill="none" xmlns="http://www.w3.org/2000/svg">
<g clip-path="url(#clip0)">
<path fill-rule="evenodd" clip-rule="evenodd" d="M0 20C0 8.96296 9.36588 0 20.9309 0V7.23457C13.5572 7.23457 7.58067 12.963 7.58067 20C7.58067 27.0617 13.5831 32.7654 20.9568 32.7654C28.3046 32.7654 34.3329 27.1111 34.3329 19.9506H41.9136C41.9136 31.037 32.5477 40 20.9568 40C9.36588 40 0 31.037 0 20Z" fill="#006539"/>
<path d="M11.7203 19.9999C11.7203 15.1111 15.8858 11.1357 21.0086 11.1357C26.1314 11.1357 30.2969 15.1111 30.2969 19.9999C30.2969 24.9135 26.1314 28.8641 21.0086 28.8641C15.8858 28.8641 11.7203 24.8888 11.7203 19.9999Z" fill="#52AE32"/>
<path d="M27.4508 8.76562C27.4508 5.9508 29.8311 3.6792 32.7806 3.6792C35.73 3.6792 38.1103 5.9508 38.1103 8.76562C38.1103 11.5804 35.73 13.852 32.7806 13.852C29.8311 13.852 27.4508 11.5804 27.4508 8.76562Z" fill="#006539"/>
<path d="M191.069 13.8026L190.422 16.8396C188.896 23.4322 188.352 25.5557 187.033 32.1236L186.748 32.3705L182.557 32.4939L182.35 32.2223L184.032 25.4569L184.523 23.2347C182.712 23.1853 180.927 23.1606 179.116 23.1606C177.719 23.1606 176.632 23.1853 175.546 23.21C174.925 25.8767 174.407 28.1976 173.631 32.1236L173.346 32.3458L169.155 32.4692L168.948 32.1976L170.63 25.4322L171.302 22.4939C172.415 17.852 172.622 16.8396 173.269 12.568L173.553 12.2964C175.468 12.0495 175.934 11.9754 177.9 11.5804L178.107 11.852L177.667 13.8026L177.02 16.8396L176.348 19.7038C177.874 19.7285 179.375 19.7532 180.901 19.7532C182.505 19.7532 183.566 19.7285 185.351 19.6791C185.92 17.1606 186.153 15.8026 186.671 12.5433L186.955 12.2717C188.896 12.0248 189.336 11.9507 191.328 11.5557L191.535 11.8273L191.069 13.8026Z" fill="#52AE32"/>
<path d="M140.54 22.6172C140.825 21.4814 141.032 20.3209 141.032 19.2344C141.032 15.2344 138.341 14.5678 136.814 14.5678C130.32 14.5678 129.492 24.1974 129.492 25.6542C129.492 28.8147 131.485 30.1974 133.71 30.1974C138.134 30.1974 139.79 25.8517 140.54 22.6172ZM144.835 23.8517C143.929 27.2591 141.394 33.1357 133.632 33.1357C128.121 33.1357 125.12 30.4196 125.12 25.0369C125.12 24.3456 125.172 23.5801 125.301 22.7653C125.327 22.5678 125.353 22.3702 125.379 22.1727C126.879 13.2838 130.915 4.83939 139.79 4.76531C140.98 4.74062 143.36 4.64185 144.99 4.27148L144.369 7.80235C142.739 8.19741 140.126 8.41963 138.599 8.41963C136.737 8.44432 135.443 9.11099 134.537 9.9505C134.098 10.3456 133.735 10.8147 133.477 11.2098C133.218 11.6048 133.011 11.9752 132.882 12.2715C134.072 11.9258 135.365 11.7036 136.814 11.7036C142.222 11.7036 145.456 14.5925 145.456 19.6789C145.456 21.0369 145.197 22.469 144.835 23.8517Z" fill="#52AE32"/>
<path d="M198.184 20.1973C199.167 19.3825 199.736 18.864 201.108 17.6047C202.531 16.2714 206.049 12.8146 206.696 12.1479L207.162 11.9257H211.896L212.026 12.2714C211.612 12.617 211.405 12.7899 209.749 14.1232C209.102 14.6417 208.688 15.0368 207.912 15.7035L202.556 20.4195L208.947 32.0245L208.688 32.3454L204.109 32.4689L203.773 32.222C202.712 29.7775 202.427 29.2343 200.927 26.3701L198.029 20.7899C197.123 24.6664 196.554 27.0862 195.545 32.1479L195.26 32.3948L191.069 32.5183L190.862 32.2467L192.544 25.4812L193.191 22.543C194.303 17.901 194.51 16.8887 195.157 12.617L195.442 12.3454C197.382 12.0985 197.822 12.0245 199.814 11.6294L200.021 11.901L199.581 13.8516L198.96 16.8393L198.184 20.1973Z" fill="#52AE32"/>
<path d="M161.755 27.358C161.316 27.7037 160.85 28.0987 160.384 28.3703C159.323 29.0123 157.9 29.2839 156.788 29.2839C153.011 29.2839 151.95 26.2469 151.95 24.3703C151.95 24.1728 152.027 19.0864 156.374 16.2716C158.806 14.6913 161.497 14.6173 162.868 14.6173C163.489 14.6173 164.11 14.642 164.731 14.642L161.755 27.358ZM169.672 12L169.465 11.679L163.748 11.6543C159.944 11.6543 154.615 11.8765 150.76 16.1975C149.026 18.1728 147.448 21.5555 147.448 24.6666C147.448 29.5802 150.889 32.4197 155.106 32.4197C158.625 32.4197 160.436 30.9629 161.135 30.4197L160.85 32L161.057 32.2716L164.938 32.1975L165.222 31.9259C166.05 27.2345 166.335 25.7284 167.784 19.679L169.672 12Z" fill="#52AE32"/>
<path d="M60.6712 33.0126C56.1953 33.0126 49.7271 31.6545 52.0815 21.778C52.9612 18.0743 55.6519 10.1978 66.6995 10.1978C77.4367 10.1978 75.8326 18.5928 75.1857 21.5558C73.1936 29.9261 67.8379 33.0126 60.6712 33.0126ZM62.146 28.6422C65.3024 28.6422 66.7772 25.5064 67.7344 21.4817C68.4071 18.6422 69.1316 14.4694 65.3283 14.4694C62.0942 14.4694 60.6453 17.4323 59.7139 21.4817C58.8084 25.2348 58.6014 28.6422 62.146 28.6422Z" fill="#006539"/>
<path d="M86.9319 32.5189C84.8621 32.5189 81.4469 32.5189 80.0239 32.5683L79.7911 32.3214C80.1792 31.0127 81.1623 27.4572 82.1714 23.1362C82.9993 19.63 83.7237 16.5436 84.0083 15.1362C82.2749 15.1856 79.61 15.1856 78.2905 15.2103L78.0576 14.914C78.394 13.8522 78.8855 12.0004 79.196 10.8893L79.5841 10.6671C80.7484 10.7164 85.1208 10.7411 88.6654 10.7411C92.9344 10.7411 97.0998 10.6671 97.9795 10.6177L98.2641 10.8399C97.9536 11.8276 97.3844 13.8522 97.0998 14.8646L96.6859 15.1115C94.9783 15.0868 93.6847 15.0868 91.2009 15.0868C90.9939 15.9757 90.3212 18.6177 89.2087 23.309C88.3808 26.8646 87.6822 30.0992 87.2941 32.1732L86.9319 32.5189Z" fill="#006539"/>
<path d="M110.916 15.63C109.519 15.63 107.966 15.6794 107.268 15.6794C107.061 16.593 106.207 19.9757 105.431 23.2597C104.525 27.1362 103.697 30.7658 103.387 32.272L102.973 32.5189C100.851 32.5189 98.1348 32.5189 95.9615 32.5683L95.7286 32.3214C96.1685 30.6177 97.3069 26.0251 98.3935 21.4325C99.4802 16.8152 100.437 12.2967 100.722 11.0127L101.084 10.7164C103.413 10.7164 105.767 10.7905 111.563 10.7905C116.09 10.7905 120.489 10.6671 122.817 10.6177L123.024 10.8646C122.714 11.9757 121.42 17.2843 120.178 22.5436C119.169 26.7905 118.238 31.0127 118.005 32.2226L117.694 32.4695C115.832 32.4695 112.442 32.4695 110.657 32.5189L110.476 32.2226C110.864 30.7905 111.692 27.4572 112.675 23.3337C113.425 20.1979 114.15 16.8646 114.46 15.63C113.736 15.6794 112.209 15.63 110.916 15.63Z" fill="#006539"/>
</g>
<defs>
<clipPath id="clip0">
<path d="M0 0H212V40H0V0Z" fill="white"/>
</clipPath>
</defs>
</svg>
